# xmcd
# 
# Track frame offsets:
#     150
#     21875
#     40538
#     59278
#     77793
#     98130
#     117733
#     138383
#     152955
# 
# Disc length: 2295
# 
# Revision: 14
# Processed by: cddbd v1.5.2PL0 Copyright (c) Steve Scherf et al.
# Submitted via: fre:ac v1.0.27
# 
DISCID=7308f509
DTITLE=Stardust Revue - Best Wishes [Disc 1]
DYEAR=1990
DGENRE=Pop
TTITLE0=シュガーはお年頃
TTITLE1=銀座ネオン・パラダイス
TTITLE2=ブラックペッパーのたっぷりきいた私の作ったオニオンスライス
TTITLE3=トワイライト・アヴェニュー
TTITLE4=夢伝説
TTITLE5=思い出にかわるまで
TTITLE6=Single Night
TTITLE7=６月のジングル・ベル
TTITLE8=今夜だけきっと
EXTD=
EXTT0=
EXTT1=
EXTT2=
EXTT3=
EXTT4=
EXTT5=
EXTT6=
EXTT7=
EXTT8=
PLAYORDER=
